<svg height="328.33333333333337" viewBox="-164.16666666666666 -164.16666666666669 328.3333333333333 328.33333333333337" width="328.3333333333333" xmlns="http://www.w3.org/2000/svg"><g><circle cx="0" cy="0" fill="#69b599" r="105"></circle><g><path d="M89.16666666666667 -1.6647165301149984E-15 C94.16666666666667 -50.0 139.16666666666666 -20.0 164.16666666666666 8.482853306834291E-16 M89.16666666666667 -1.6647165301149984E-15 C94.16666666666667 50.0 139.16666666666666 20.0 164.16666666666666 8.482853306834291E-16" fill-rule="evenodd" fill="#ff8b94" stroke-linecap="round" stroke-width="4px" stroke="#ffaaa5"></path><path d="M77.22059850411549 44.58333333332809 C106.55072552304567 3.782063144111916 130.5218686933359 52.26282525764977 142.17250378794103 82.08333333334083 M77.22059850411549 44.58333333332809 C56.55072552302869 90.38460352254597 110.52186869332911 86.9038414090234 142.17250378794103 82.08333333334083" fill-rule="evenodd" fill="#ff8b94" stroke-linecap="round" stroke-width="4px" stroke="#ffaaa5"></path><path d="M44.58333333332182 77.2205985041191 C90.38460352253482 56.55072552302149 86.90384140902498 110.52186869332274 82.08333333334987 142.1725037879358 M44.58333333332182 77.2205985041191 C3.7820631441125485 106.55072552305892 52.26282525765606 130.5218686933377 82.08333333334987 142.1725037879358" fill-rule="evenodd" fill="#ff8b94" stroke-linecap="round" stroke-width="4px" stroke="#ffaaa5"></path><path d="M1.467658877105563E-14 89.16666666666666 C50.00000000000001 94.16666666666667 20.000000000000004 139.16666666666666 -1.613689580150523E-15 164.16666666666666 M1.467658877105563E-14 89.16666666666666 C-49.99999999999999 94.16666666666666 -19.999999999999996 139.16666666666666 -1.613689580150523E-15 164.16666666666666" fill-rule="evenodd" fill="#ff8b94" stroke-linecap="round" stroke-width="4px" stroke="#ffaaa5"></path><path d="M-44.58333333332223 77.22059850411884 C-3.7820631441124632 106.55072552305795 -52.262825257655564 130.52186869333758 -82.08333333334917 142.1725037879362 M-44.58333333332223 77.22059850411884 C-90.3846035225356 56.55072552302203 -86.9038414090248 110.52186869332321 -82.08333333334917 142.1725037879362" fill-rule="evenodd" fill="#ff8b94" stroke-linecap="round" stroke-width="4px" stroke="#ffaaa5"></path><path d="M-77.22059850411881 44.5833333333223 C-56.55072552302201 90.38460352253566 -110.52186869332319 86.90384140902489 -142.17250378793614 82.08333333334924 M-77.22059850411881 44.5833333333223 C-106.55072552305793 3.7820631441125343 -130.52186869333755 52.26282525765565 -142.17250378793614 82.08333333334924" fill-rule="evenodd" fill="#ff8b94" stroke-linecap="round" stroke-width="4px" stroke="#ffaaa5"></path><path d="M-89.16666666666667 7.342717759926175E-14 C-94.16666666666667 50.000000000000064 -139.16666666666666 20.000000000000068 -164.16666666666666 6.172932474485818E-14 M-89.16666666666667 7.342717759926175E-14 C-94.16666666666666 -49.999999999999936 -139.16666666666666 -19.999999999999932 -164.16666666666666 6.172932474485818E-14" fill-rule="evenodd" fill="#ff8b94" stroke-linecap="round" stroke-width="4px" stroke="#ffaaa5"></path><path d="M-77.22059850411578 -44.583333333327566 C-106.55072552304667 -3.7820631441118877 -130.52186869333607 -52.26282525765016 -142.17250378794068 -82.08333333334141 M-77.22059850411578 -44.583333333327566 C-56.550725523028206 -90.3846035225451 -110.52186869332868 -86.90384140902344 -142.17250378794068 -82.08333333334141" fill-rule="evenodd" fill="#ff8b94" stroke-linecap="round" stroke-width="4px" stroke="#ffaaa5"></path><path d="M-44.583333333305916 -77.22059850412829 C-90.38460352250657 -56.55072552300336 -86.90384140902896 -110.52186869330667 -82.08333333337275 -142.1725037879226 M-44.583333333305916 -77.22059850412829 C-3.7820631441141614 -106.55072552309248 -52.26282525767199 -130.52186869334233 -82.08333333337275 -142.1725037879226" fill-rule="evenodd" fill="#ff8b94" stroke-linecap="round" stroke-width="4px" stroke="#ffaaa5"></path><path d="M-2.5596356063452856E-14 -89.16666666666667 C-50.00000000000002 -94.16666666666667 -20.00000000000002 -139.16666666666669 -1.8490928705851854E-14 -164.16666666666669 M-2.5596356063452856E-14 -89.16666666666667 C49.99999999999998 -94.16666666666667 19.99999999999998 -139.16666666666669 -1.8490928705851854E-14 -164.16666666666669" fill-rule="evenodd" fill="#ff8b94" stroke-linecap="round" stroke-width="4px" stroke="#ffaaa5"></path><path d="M44.58333333332136 -77.22059850411937 C3.7820631441125983 -106.55072552305987 52.262825257656516 -130.52186869333784 82.08333333335051 -142.17250378793543 M44.58333333332136 -77.22059850411937 C90.38460352253401 -56.55072552302099 86.90384140902509 -110.5218686933223 82.08333333335051 -142.17250378793543" fill-rule="evenodd" fill="#ff8b94" stroke-linecap="round" stroke-width="4px" stroke="#ffaaa5"></path><path d="M77.22059850409954 -44.58333333335568 C56.55072552306014 -90.38460352259494 110.52186869335696 -86.90384140901652 142.17250378796388 -82.08333333330121 M77.22059850409954 -44.58333333335568 C106.5507255229875 -3.782063144109152 130.52186869332792 -52.26282525762221 142.17250378796388 -82.08333333330121" fill-rule="evenodd" fill="#ff8b94" stroke-linecap="round" stroke-width="4px" stroke="#ffaaa5"></path></g><g><path d="M106.33333333333333 8.36841979417358E-16 C107.33333333333333 -20.0 126.33333333333334 -10.0 146.33333333333334 1.6390522052290198E-16 M106.33333333333333 8.36841979417358E-16 C107.33333333333333 20.0 126.33333333333334 10.0 146.33333333333334 1.6390522052290198E-16" fill-rule="evenodd" fill="#ffaaa5" stroke="none"></path><path d="M92.08736793574666 53.16666666666434 C102.95339333953439 36.34615859097771 114.40787601143516 54.506412628824336 126.72838408712028 73.16666666667113 M92.08736793574666 53.16666666666434 C82.9533933395276 70.98717474235133 104.40787601143177 71.82692070451114 126.72838408712028 73.16666666667113" fill-rule="evenodd" fill="#ffaaa5" stroke="none"></path><path d="M53.16666666666157 92.08736793574825 C70.9871747423464 82.953393339525 71.82692070451128 104.40787601142897 73.16666666667653 126.72838408711716 M53.16666666666157 92.08736793574825 C36.34615859097749 102.95339333953996 54.50641262882682 114.40787601143646 73.16666666667653 126.72838408711716" fill-rule="evenodd" fill="#ffaaa5" stroke="none"></path><path d="M9.021564753718837E-15 106.33333333333334 C20.000000000000007 107.33333333333334 10.000000000000007 126.33333333333334 2.3466207177291725E-15 146.33333333333334 M9.021564753718837E-15 106.33333333333334 C-19.999999999999993 107.33333333333333 -9.999999999999995 126.33333333333334 2.3466207177291725E-15 146.33333333333334" fill-rule="evenodd" fill="#ffaaa5" stroke="none"></path><path d="M-53.166666666661726 92.08736793574815 C-36.34615859097747 102.95339333953956 -54.5064126288266 114.40787601143637 -73.1666666666761 126.7283840871174 M-53.166666666661726 92.08736793574815 C-70.98717474234671 82.95339333952519 -71.82692070451122 104.40787601142918 -73.1666666666761 126.7283840871174" fill-rule="evenodd" fill="#ffaaa5" stroke="none"></path><path d="M-92.08736793574812 53.1666666666618 C-82.95339333952516 70.98717474234678 -104.40787601142915 71.82692070451131 -126.72838408711736 73.16666666667618 M-92.08736793574812 53.1666666666618 C-102.95339333953953 36.34615859097754 -114.40787601143634 54.50641262882667 -126.72838408711736 73.16666666667618" fill-rule="evenodd" fill="#ffaaa5" stroke="none"></path><path d="M-106.33333333333333 6.882330875119311E-14 C-107.33333333333334 20.000000000000068 -126.33333333333334 10.00000000000007 -146.33333333333334 6.459765831349816E-14 M-106.33333333333333 6.882330875119311E-14 C-107.33333333333333 -19.999999999999932 -126.33333333333333 -9.999999999999934 -146.33333333333334 6.459765831349816E-14" fill-rule="evenodd" fill="#ffaaa5" stroke="none"></path><path d="M-92.08736793574681 -53.16666666666407 C-102.95339333953484 -36.34615859097761 -114.4078760114353 -54.50641262882444 -126.72838408712009 -73.16666666667146 M-92.08736793574681 -53.16666666666407 C-82.95339333952745 -70.9871747423509 -104.40787601143161 -71.82692070451108 -126.72838408712009 -73.16666666667146" fill-rule="evenodd" fill="#ffaaa5" stroke="none"></path><path d="M-53.16666666665454 -92.08736793575231 C-70.9871747423339 -82.95339333951841 -71.82692070451161 -104.40787601142189 -73.16666666669019 -126.72838408710928 M-53.16666666665454 -92.08736793575231 C-36.346158590976955 -102.95339333955407 -54.506412628833125 -114.40787601143971 -73.16666666669019 -126.72838408710928" fill-rule="evenodd" fill="#ffaaa5" stroke="none"></path><path d="M-2.2043642384652355E-14 -106.33333333333333 C-20.00000000000002 -107.33333333333333 -10.000000000000021 -126.33333333333333 -2.0267285545252105E-14 -146.33333333333331 M-2.2043642384652355E-14 -106.33333333333333 C19.99999999999998 -107.33333333333333 9.99999999999998 -126.33333333333333 -2.0267285545252105E-14 -146.33333333333331" fill-rule="evenodd" fill="#ffaaa5" stroke="none"></path><path d="M53.16666666666137 -92.08736793574836 C36.346158590977474 -102.95339333954036 54.506412628827 -114.40787601143654 73.16666666667692 -126.72838408711692 M53.16666666666137 -92.08736793574836 C70.98717474234604 -82.95339333952481 71.82692070451128 -104.40787601142875 73.16666666667692 -126.72838408711692" fill-rule="evenodd" fill="#ffaaa5" stroke="none"></path><path d="M92.0873679357396 -53.16666666667655 C82.95339333953898 -70.98717474237299 104.40787601144402 -71.8269207045106 126.72838408713392 -73.1666666666475 M92.0873679357396 -53.16666666667655 C102.95339333950993 -36.34615859097866 114.4078760114295 -54.50641262881344 126.72838408713392 -73.1666666666475" fill-rule="evenodd" fill="#ffaaa5" stroke="none"></path></g><g><path d="M25.436046758945466 6.815568187699715 C31.57835348728495 -12.24412929297913 47.34275373575204 2.332690826859446 64.07307981050819 17.168329991800544 M25.436046758945466 6.815568187699715 C21.22559168318412 26.3929037585836 42.16637283370162 21.65120735264081 64.07307981050819 17.168329991800544" fill-rule="evenodd" fill="none" stroke-width="2px" stroke="#f4f1d7"></path><path d="M22.084991622565095 14.342161255392227 C33.816442890816 -1.8866110684976576 44.30479333162309 16.848236276245288 55.63181434037543 36.12772265600351 M22.084991622565095 14.342161255392227 C12.03088149020471 31.66021164931268 33.41201263131744 33.62164763515046 55.63181434037543 36.12772265600351" fill-rule="evenodd" fill="none" stroke-width="2px" stroke="#f4f1d7"></path><path d="M16.572103630986305 20.464843651694366 C32.744343251183615 8.655581792165624 36.92997106654645 29.7145589703493 41.7449192729586 51.550682109990376 M16.572103630986305 20.464843651694366 C1.6585047928876016 33.82839743413791 21.387051837398445 42.30096679133544 41.7449192729586 51.550682109990376" fill-rule="evenodd" fill="none" stroke-width="2px" stroke="#f4f1d7"></path><path d="M9.437022671361461 24.584284564425587 C28.466999150851727 18.350506000019607 25.940185927237252 39.67221359891907 23.771740653167935 61.92750162431578 M9.437022671361461 24.584284564425587 C-8.876217909038479 32.685223981826084 7.26857739729215 46.83957258982231 23.771740653167935 61.92750162431578" fill-rule="evenodd" fill="none" stroke-width="2px" stroke="#f4f1d7"></path><path d="M1.3781801810461625 26.297244415204723 C21.403106832380523 26.249154825073976 12.411194653476468 45.74647554785219 3.4716184308166778 66.24242580538491 M1.3781801810461625 26.297244415204723 C-18.542074557799666 28.342593074844483 -7.5613960416136266 46.79319467273745 3.4716184308166778 66.24242580538491" fill-rule="evenodd" fill="none" stroke-width="2px" stroke="#f4f1d7"></path><path d="M-6.815568187699706 25.436046758945466 C12.244129292979135 31.578353487284954 -2.3326908268594426 47.34275373575205 -17.168329991800547 64.07307981050822 M-6.815568187699706 25.436046758945466 C-26.392903758583593 21.22559168318412 -21.65120735264081 42.16637283370162 -17.168329991800547 64.07307981050822" fill-rule="evenodd" fill="none" stroke-width="2px" stroke="#f4f1d7"></path><path d="M-14.342161255394725 22.08499162256348 C1.886611068497725 33.81644289081084 -16.848236276242936 44.304793331622015 -36.12772265599869 55.63181434037857 M-14.342161255394725 22.08499162256348 C-31.660211649317375 12.030881490206873 -33.62164763515048 33.41201263132004 -36.12772265599869 55.63181434037857" fill-rule="evenodd" fill="none" stroke-width="2px" stroke="#f4f1d7"></path><path d="M-20.464843651690785 16.572103630990718 C-8.65558179216876 32.74434325119294 -29.71455897035418 36.929971066547026 -51.550682109997254 41.744919272950085 M-20.464843651690785 16.572103630990718 C-33.828397434128135 1.6585047928864682 -42.30096679133386 21.387051837393788 -51.550682109997254 41.744919272950085" fill-rule="evenodd" fill="none" stroke-width="2px" stroke="#f4f1d7"></path><path d="M-24.584284564427612 9.43702267135617 C-18.350506000013723 28.46699915084384 -39.67221359891424 25.940185927238225 -61.92750162431185 23.77174065317816 M-24.584284564427612 9.43702267135617 C-32.68522398183571 -8.876217909040397 -46.83957258982524 7.268577397296103 -61.92750162431185 23.77174065317816" fill-rule="evenodd" fill="none" stroke-width="2px" stroke="#f4f1d7"></path><path d="M-26.297244415204073 1.378180181058569 C-26.249154825091487 21.403106832392975 -45.74647554786156 12.411194653471226 -66.24242580538616 3.4716184307928364 M-26.297244415204073 1.378180181058569 C-28.342593074825757 -18.542074557789118 -46.79319467272869 -7.561396041619824 -66.24242580538616 3.4716184307928364" fill-rule="evenodd" fill="none" stroke-width="2px" stroke="#f4f1d7"></path><path d="M-25.436046758945473 -6.815568187699692 C-31.578353487284957 12.244129292979155 -47.34275373575205 -2.3326908268594266 -64.0730798105082 -17.168329991800526 M-25.436046758945473 -6.815568187699692 C-21.22559168318412 -26.39290375858357 -42.16637283370163 -21.651207352640796 -64.0730798105082 -17.168329991800526" fill-rule="evenodd" fill="none" stroke-width="2px" stroke="#f4f1d7"></path><path d="M-22.084991622564043 -14.342161255393851 C-33.816442890812624 1.8866110684977144 -44.30479333162239 -16.848236276243732 -55.63181434037749 -36.12772265600034 M-22.084991622564043 -14.342161255393851 C-12.030881490206134 -31.660211649315734 -33.41201263131915 -33.62164763515046 -55.63181434037749 -36.12772265600034" fill-rule="evenodd" fill="none" stroke-width="2px" stroke="#f4f1d7"></path><path d="M-16.572103630979672 -20.464843651699738 C-32.74434325116961 -8.655581792160888 -36.929971066545605 -29.71455897034195 -41.74491927297139 -51.550682109980016 M-16.572103630979672 -20.464843651699738 C-1.6585047928893282 -33.8283974341526 -21.38705183740546 -42.30096679133781 -41.74491927297139 -51.550682109980016" fill-rule="evenodd" fill="none" stroke-width="2px" stroke="#f4f1d7"></path><path d="M-9.43702267135885 -24.584284564426586 C-28.466999150847833 -18.350506000016697 -25.940185927237735 -39.672213598916684 -23.77174065317299 -61.927501624313834 M-9.43702267135885 -24.584284564426586 C8.876217909039422 -32.685223981830845 -7.268577397294108 -46.839572589823746 -23.77174065317299 -61.927501624313834" fill-rule="evenodd" fill="none" stroke-width="2px" stroke="#f4f1d7"></path><path d="M-1.3781801810490393 -26.297244415204567 C-21.403106832383408 -26.24915482507803 -12.411194653475247 -45.74647554785436 -3.471618430811141 -66.2424258053852 M-1.3781801810490393 -26.297244415204567 C18.542074557797225 -28.34259307484014 7.561396041615069 -46.79319467273542 -3.471618430811141 -66.2424258053852" fill-rule="evenodd" fill="none" stroke-width="2px" stroke="#f4f1d7"></path><path d="M6.815568187699741 -25.43604675894545 C-12.244129292979101 -31.57835348728494 2.3326908268594764 -47.342753735752034 17.168329991800576 -64.07307981050819 M6.815568187699741 -25.43604675894545 C26.39290375858363 -21.225591683184106 21.651207352640842 -42.16637283370161 17.168329991800576 -64.07307981050819" fill-rule="evenodd" fill="none" stroke-width="2px" stroke="#f4f1d7"></path><path d="M14.342161255392643 -22.08499162256482 C-1.8866110684976398 -33.81644289081517 16.848236276244947 -44.304793331622896 36.12772265600279 -55.6318143403759 M14.342161255392643 -22.08499162256482 C31.66021164931344 -12.03088149020503 33.62164763515049 -33.41201263131783 36.12772265600279 -55.6318143403759" fill-rule="evenodd" fill="none" stroke-width="2px" stroke="#f4f1d7"></path><path d="M20.46484365169976 -16.57210363097963 C8.655581792160906 -32.74434325116957 29.71455897034197 -36.92997106654556 51.55068210998003 -41.74491927297136 M20.46484365169976 -16.57210363097963 C33.82839743415263 -1.6585047928892855 42.30096679133783 -21.387051837405423 51.55068210998003 -41.74491927297136" fill-rule="evenodd" fill="none" stroke-width="2px" stroke="#f4f1d7"></path><path d="M24.584284564424586 -9.437022671364092 C18.350506000022598 -28.466999150855656 39.67221359892153 -25.940185927236712 61.927501624317784 -23.771740653162723 M24.584284564424586 -9.437022671364092 C32.68522398182123 8.876217909037544 46.839572589820854 -7.268577397290106 61.927501624317784 -23.771740653162723" fill-rule="evenodd" fill="none" stroke-width="2px" stroke="#f4f1d7"></path><path d="M26.2972444152039 -1.3781801810619285 C26.249154825096376 -21.40310683239634 45.746475547864165 -12.411194653469678 66.24242580538652 -3.4716184307861138 M26.2972444152039 -1.3781801810619285 C28.342593074820556 18.542074557786275 46.79319467272626 7.561396041621636 66.24242580538652 -3.4716184307861138" fill-rule="evenodd" fill="none" stroke-width="2px" stroke="#f4f1d7"></path></g><g><path d="M80.8157941328536 21.654526773577846 C74.67348740451412 40.71422425425669 58.90908715604701 26.137404134418112 42.17876108129086 11.30176496947702 M80.8157941328536 21.654526773577846 C85.02624920861494 2.077191202693964 64.08546805809742 6.8188876086367465 42.17876108129086 11.30176496947702" fill-rule="evenodd" fill="none" stroke-width="2px" stroke="#f4f1d7"></path><path d="M75.82775151540342 35.35906123230079 C66.46907849355945 53.062598711296616 53.47541315726366 35.96977386786173 39.575440033931045 18.45433076268649 M75.82775151540342 35.35906123230079 C83.37380896317376 16.810287229824247 61.9277783920708 17.84361812712554 39.575440033931045 18.45433076268649" fill-rule="evenodd" fill="none" stroke-width="2px" stroke="#f4f1d7"></path><path d="M68.53572103885146 47.98922850803166 C56.24504026755021 63.79869295746718 46.41691578955938 44.70922022391278 35.769639267279224 25.04617105400778 M68.53572103885146 47.98922850803166 C79.18809772157411 31.032611185894947 57.88844451657132 28.326179338126657 35.769639267279224 25.04617105400778" fill-rule="evenodd" fill="none" stroke-width="2px" stroke="#f4f1d7"></path><path d="M59.1612673592759 59.161267359274866 C44.312024954358236 72.59629620181909 37.948063923679555 52.090199547409135 30.876996111814336 30.876996111812627 M59.1612673592759 59.161267359274866 C72.59629620182048 44.31202495435754 52.09019954741068 37.948063923678355 30.876996111814336 30.876996111812627" fill-rule="evenodd" fill="none" stroke-width="2px" stroke="#f4f1d7"></path><path d="M47.9892285080352 68.53572103884862 C31.032611185900663 79.18809772157472 28.32617933812803 57.888444516572484 25.046171054004624 35.769639267281065 M47.9892285080352 68.53572103884862 C63.798692957468205 56.245040267544134 44.70922022391181 46.416915789557194 25.046171054004624 35.769639267281065" fill-rule="evenodd" fill="none" stroke-width="2px" stroke="#f4f1d7"></path><path d="M35.359061232312214 75.82775151539744 C16.810287229841858 83.373808963183 17.84361812712556 61.92777839207919 18.45433076266816 39.575440033938925 M35.359061232312214 75.82775151539744 C53.06259871130035 66.46907849353893 35.96977386785481 53.475413157257165 18.45433076266816 39.575440033938925" fill-rule="evenodd" fill="none" stroke-width="2px" stroke="#f4f1d7"></path><path d="M21.654526773573917 80.81579413285371 C2.077191202688386 85.02624920860738 6.818887608639377 64.08546805809173 11.301764969488225 42.17876108128692 M21.654526773573917 80.81579413285371 C40.71422425425517 74.6734874045217 26.137404134422766 58.90908715604889 11.301764969488225 42.17876108128692" fill-rule="evenodd" fill="none" stroke-width="2px" stroke="#f4f1d7"></path><path d="M7.292030476566916 83.34828974034201 C-12.719019228015036 84.09520989722007 -4.413031359319554 64.2959532059934 3.805800766627434 43.50050181667508 M7.292030476566916 83.34828974034201 C27.128768695651893 80.6089801872806 15.510862602513908 62.55283835102367 3.805800766627434 43.50050181667508" fill-rule="evenodd" fill="none" stroke-width="2px" stroke="#f4f1d7"></path><path d="M-7.292030476538887 83.3482897403442 C-27.128768695628885 80.60898018731919 -15.51086260252405 62.55283835104094 -3.805800766672554 43.50050181667087 M-7.292030476538887 83.3482897403442 C12.719019228044443 84.09520989718553 4.413031359312612 64.29595320597412 -3.805800766672554 43.50050181667087" fill-rule="evenodd" fill="none" stroke-width="2px" stroke="#f4f1d7"></path><path d="M-21.65452677357607 80.81579413285233 C-40.714224254254916 74.67348740451284 -26.137404134416336 58.90908715604576 -11.301764969475238 42.17876108128959 M-21.65452677357607 80.81579413285233 C-2.0771912026921804 85.02624920861368 -6.81888760863497 64.08546805809617 -11.301764969475238 42.17876108128959" fill-rule="evenodd" fill="none" stroke-width="2px" stroke="#f4f1d7"></path><path d="M-35.35906123229685 75.82775151540318 C-53.062598711294314 66.46907849356232 -35.969773867861704 53.475413157263525 -18.45433076268889 39.57544003392785 M-35.35906123229685 75.82775151540318 C-16.810287229818982 83.37380896317029 -17.84361812712403 61.92777839206751 -18.45433076268889 39.57544003392785" fill-rule="evenodd" fill="none" stroke-width="2px" stroke="#f4f1d7"></path><path d="M-47.989228508036064 68.53572103884588 C-63.798692957464795 56.245040267535884 -44.709220223904964 46.41691578955559 -25.046171053994076 35.76963926728631 M-47.989228508036064 68.53572103884588 C-31.032611185905235 79.18809772157789 -28.326179338125176 57.888444516576584 -25.046171053994076 35.76963926728631" fill-rule="evenodd" fill="none" stroke-width="2px" stroke="#f4f1d7"></path><path d="M-59.1612673592731 59.16126735927462 C-72.59629620181731 44.31202495435696 -52.090199547407366 37.94806392367827 -30.87699611181086 30.87699611181305 M-59.1612673592731 59.16126735927462 C-44.312024954355756 72.5962962018192 -37.948063923676585 52.09019954740939 -30.87699611181086 30.87699611181305" fill-rule="evenodd" fill="none" stroke-width="2px" stroke="#f4f1d7"></path><path d="M-68.53572103884683 47.989228508033925 C-79.18809772157294 31.03261118589938 -57.888444516570694 28.32617933812675 -35.76963926727927 25.046171054003352 M-68.53572103884683 47.989228508033925 C-56.24504026754236 63.798692957466955 -46.416915789555404 44.709220223910535 -35.76963926727927 25.046171054003352" fill-rule="evenodd" fill="none" stroke-width="2px" stroke="#f4f1d7"></path><path d="M-75.82775151540106 35.3590612322993 C-83.37380896316921 16.810287229821867 -61.92777839206639 17.843618127125687 -39.5754400339267 18.45433076268927 M-75.82775151540106 35.3590612322993 C-66.4690784935592 53.06259871129623 -53.47541315726138 35.96977386786287 -39.5754400339267 18.45433076268927" fill-rule="evenodd" fill="none" stroke-width="2px" stroke="#f4f1d7"></path><path d="M-80.81579413284804 21.654526773587214 C-85.0262492086233 2.0771912027063273 -64.08546805810242 6.81888760863421 -42.17876108129266 11.301764969458887 M-80.81579413284804 21.654526773587214 C-74.67348740449498 40.714224254261694 -58.909087156038254 26.137404134411895 -42.17876108129266 11.301764969458887" fill-rule="evenodd" fill="none" stroke-width="2px" stroke="#f4f1d7"></path><path d="M-83.34828974034085 7.292030476558104 C-84.09520989720787 -12.719019228024258 -64.2959532059858 -4.413031359317841 -43.50050181667201 3.805800766640633 M-83.34828974034085 7.292030476558104 C-80.6089801872904 27.12876869564459 -62.55283835102707 15.510862602516578 -43.50050181667201 3.805800766640633" fill-rule="evenodd" fill="none" stroke-width="2px" stroke="#f4f1d7"></path><path d="M-83.34828974034083 -7.292030476558032 C-80.60898018728983 -27.128768695644446 -62.55283835102681 -15.510862602515942 -43.500501816672084 -3.8058007666394826 M-83.34828974034083 -7.292030476558032 C-84.09520989720839 12.719019228024308 -64.29595320598611 4.413031359318435 -43.500501816672084 -3.8058007666394826" fill-rule="evenodd" fill="none" stroke-width="2px" stroke="#f4f1d7"></path><path d="M-80.81579413285051 -21.654526773577345 C-74.67348740451104 -40.71422425425619 -58.90908715604394 -26.13740413441761 -42.17876108128779 -11.301764969476515 M-80.81579413285051 -21.654526773577345 C-85.02624920861186 -2.077191202693456 -64.08546805809435 -6.818887608636244 -42.17876108128779 -11.301764969476515" fill-rule="evenodd" fill="none" stroke-width="2px" stroke="#f4f1d7"></path><path d="M-75.82775151539632 -35.35906123230896 C-66.46907849353993 -53.06259871129822 -53.47541315725611 -35.96977386785422 -39.57544003393578 -18.45433076266923 M-75.82775151539632 -35.35906123230896 C-83.37380896317966 -16.810287229837705 -61.927778392075986 -17.843618127123968 -39.57544003393578 -18.45433076266923" fill-rule="evenodd" fill="none" stroke-width="2px" stroke="#f4f1d7"></path><path d="M-68.5357210388365 -47.989228508048164 C-56.24504026751121 -63.79869295746501 -46.416915789549364 -44.70922022389566 -35.7696392672991 -25.046171053974486 M-68.5357210388365 -47.989228508048164 C-79.18809772158488 -31.032611185927628 -57.888444516586205 -28.32617933812697 -35.7696392672991 -25.046171053974486" fill-rule="evenodd" fill="none" stroke-width="2px" stroke="#f4f1d7"></path><path d="M-59.16126735926471 -59.16126735928243 C-44.31202495433582 -72.59629620181423 -37.9480639236743 -52.090199547398946 -30.876996111826838 -30.876996111796522 M-59.16126735926471 -59.16126735928243 C-72.59629620182173 -44.31202495437634 -52.09019954741726 -37.948063923679996 -30.876996111826838 -30.876996111796522" fill-rule="evenodd" fill="none" stroke-width="2px" stroke="#f4f1d7"></path><path d="M-47.9892285080482 -68.53572103883684 C-31.032611185928953 -79.1880977215873 -28.32617933812572 -57.88844451658895 -25.04617105397054 -35.769639267302225 M-47.9892285080482 -68.53572103883684 C-63.79869295746356 -56.24504026750964 -44.70922022389301 -46.41691578955011 -25.04617105397054 -35.769639267302225" fill-rule="evenodd" fill="none" stroke-width="2px" stroke="#f4f1d7"></path><path d="M-35.35906123229651 -75.82775151540275 C-16.810287229818485 -83.37380896316947 -17.843618127123996 -61.927778392066706 -18.454330762689324 -39.575440033927066 M-35.35906123229651 -75.82775151540275 C-53.06259871129418 -66.46907849356228 -35.969773867861846 -53.47541315726311 -18.454330762689324 -39.575440033927066" fill-rule="evenodd" fill="none" stroke-width="2px" stroke="#f4f1d7"></path><path d="M-21.654526773578976 -80.81579413285098 C-2.0771912026960493 -85.0262492086168 -6.8188876086340535 -64.08546805809821 -11.301764969469312 -42.17876108129062 M-21.654526773578976 -80.81579413285098 C-40.714224254256415 -74.67348740450713 -26.137404134414236 -58.90908715604337 -11.301764969469312 -42.17876108129062" fill-rule="evenodd" fill="none" stroke-width="2px" stroke="#f4f1d7"></path><path d="M-7.29203047656569 -83.34828974034129 C12.719019228016155 -84.09520989722215 4.413031359323439 -64.29595320599432 -3.805800766620649 -43.500501816674856 M-7.29203047656569 -83.34828974034129 C-27.12876869565028 -80.60898018727711 -15.51086260250978 -62.552838351021805 -3.805800766620649 -43.500501816674856" fill-rule="evenodd" fill="none" stroke-width="2px" stroke="#f4f1d7"></path><path d="M7.292030476551242 -83.34828974034284 C27.12876869563938 -80.60898018730435 15.510862602522279 -62.552838351034 3.8058007666578435 -43.50050181667188 M7.292030476551242 -83.34828974034284 C-12.719019228031573 -84.09520989719775 -4.4130313593132 -64.29595320598071 3.8058007666578435 -43.50050181667188" fill-rule="evenodd" fill="none" stroke-width="2px" stroke="#f4f1d7"></path><path d="M21.6545267735792 -80.81579413285174 C40.71422425425804 -74.67348740451224 26.13740413441947 -58.90908715604517 11.301764969478374 -42.17876108128901 M21.6545267735792 -80.81579413285174 C2.077191202695314 -85.02624920861308 6.818887608638102 -64.08546805809559 11.301764969478374 -42.17876108128901" fill-rule="evenodd" fill="none" stroke-width="2px" stroke="#f4f1d7"></path><path d="M35.359061232310815 -75.82775151539751 C53.06259871130008 -66.46907849354113 35.96977386785608 -53.47541315725732 18.45433076267108 -39.57544003393701 M35.359061232310815 -75.82775151539751 C16.810287229839563 -83.37380896318086 17.843618127125815 -61.92777839207719 18.45433076267108 -39.57544003393701" fill-rule="evenodd" fill="none" stroke-width="2px" stroke="#f4f1d7"></path><path d="M47.989228508032994 -68.53572103884962 C63.7986929574685 -56.24504026754833 44.70922022391409 -46.416915789557514 25.04617105400907 -35.769639267277384 M47.989228508032994 -68.53572103884962 C31.03261118589629 -79.18809772157226 28.32617933812797 -57.88844451656948 25.04617105400907 -35.769639267277384" fill-rule="evenodd" fill="none" stroke-width="2px" stroke="#f4f1d7"></path><path d="M59.16126735926893 -59.16126735928128 C72.59629620182429 -44.31202495437369 52.0901995474191 -37.94806392367964 30.876996111827896 -30.876996111798523 M59.16126735926893 -59.16126735928128 C44.31202495434153 -72.59629620181474 37.94806392367772 -52.09019954740016 30.876996111827896 -30.876996111798523" fill-rule="evenodd" fill="none" stroke-width="2px" stroke="#f4f1d7"></path><path d="M68.53572103884758 -47.989228508036646 C79.18809772157874 -31.03261118590528 57.88844451657732 -28.326179338126288 35.76963926728688 -25.046171053996282 M68.53572103884758 -47.989228508036646 C56.24504026753839 -63.79869295746599 46.41691578955715 -44.70922022390664 35.76963926728688 -25.046171053996282" fill-rule="evenodd" fill="none" stroke-width="2px" stroke="#f4f1d7"></path><path d="M75.82775151540102 -35.35906123230538 C83.37380896317919 -16.810287229832028 61.92777839207581 -17.84361812712426 39.57544003393579 -18.45433076267576 M75.82775151540102 -35.35906123230538 C66.46907849354959 -53.062598711297255 53.475413157260995 -35.96977386785688 39.57544003393579 -18.45433076267576" fill-rule="evenodd" fill="none" stroke-width="2px" stroke="#f4f1d7"></path><path d="M80.81579413285526 -21.654526773570993 C85.02624920860738 -2.0771912026851176 64.08546805809212 -6.818887608637766 42.17876108128766 -11.301764969488346 M80.81579413285526 -21.654526773570993 C74.67348740452475 -40.71422425425273 58.9090871560508 -26.137404134421573 42.17876108128766 -11.301764969488346" fill-rule="evenodd" fill="none" stroke-width="2px" stroke="#f4f1d7"></path><path d="M83.34828974034492 -7.292030476546217 C84.09520989719542 12.71901922803676 64.2959532059802 4.413031359313992 43.50050181667319 -3.805800766661665 M83.34828974034492 -7.292030476546217 C80.60898018731085 -27.128768695634967 62.55283835103792 -15.510862602521872 43.50050181667319 -3.805800766661665" fill-rule="evenodd" fill="none" stroke-width="2px" stroke="#f4f1d7"></path><path d="M83.34828974034457 7.292030476550526 C80.6089801873054 27.128768695638577 62.55283835103544 15.51086260252083 43.50050181667375 3.805800766655728 M83.34828974034457 7.292030476550526 C84.09520989720022 -12.719019228032254 64.29595320598285 -4.413031359314585 43.50050181667375 3.805800766655728" fill-rule="evenodd" fill="none" stroke-width="2px" stroke="#f4f1d7"></path></g><g><path d="M41.83715122020683 41.8371512202046 C80.72802418546695 10.017346066809964 91.33462590326516 63.05035465580103 94.87015980919793 94.87015980919568 M41.83715122020683 41.8371512202046 C10.017346066812188 80.72802418546472 63.05035465580326 91.33462590326295 94.87015980919793 94.87015980919568 M53.97581763057589 53.975817630573665 C68.82506003549338 40.54078878802926 75.18902106617232 61.046885442439134 82.2600888780378 82.26008887803556 M53.97581763057589 53.975817630573665 C40.54078878803149 68.82506003549116 61.046885442441365 75.1890210661701 82.2600888780378 82.26008887803556" fill-rule="evenodd" fill="#cc5963" stroke="none"></path><path d="M-15.313460168549247 57.150611388774124 C31.688735920383323 74.92119277536727 -8.935895897918678 110.6232836052809 -34.724888551271846 129.59504836044522 M-15.313460168549247 57.150611388774124 C-64.90384670851151 49.03928826507045 -47.57292894947663 100.27052180116218 -34.724888551271846 129.59504836044522 M-19.75652044281686 73.73233807340105 C-0.6968229621408675 79.87464480174937 -15.273643081986746 95.63904505020972 -30.1092822469356 112.369371124959 M-19.75652044281686 73.73233807340105 C-39.33385601369881 69.52188299763064 -34.592159607765716 90.46266414815035 -30.1092822469356 112.369371124959" fill-rule="evenodd" fill="#cc5963" stroke="none"></path><path d="M-57.15061138876598 15.313460168570636 C-49.03928826509237 64.90384670853781 -100.27052180117359 47.57292894947187 -129.59504836044886 34.724888551249336 M-57.15061138876598 15.313460168570636 C-74.92119277533064 -31.688735920372732 -110.62328360526888 8.935895897907658 -129.59504836044886 34.724888551249336 M-73.73233807339561 19.7565204428282 C-69.52188299763705 39.333856013712676 -90.46266414815389 34.59215960776691 -112.36937112495981 30.109282246923506 M-73.73233807339561 19.7565204428282 C-79.87464480173237 0.6968229621484703 -95.63904505020155 15.2736430819848 -112.36937112495981 30.109282246923506" fill-rule="evenodd" fill="#cc5963" stroke="none"></path><path d="M-41.837151220201335 -41.83715122020351 C-80.72802418546146 -10.017346066808877 -91.33462590325966 -63.050354655799936 -94.8701598091924 -94.87015980919459 M-41.837151220201335 -41.83715122020351 C-10.017346066806688 -80.72802418546362 -63.05035465579777 -91.33462590326184 -94.8701598091924 -94.87015980919459 M-53.97581763057039 -53.97581763057258 C-68.82506003548788 -40.540788788028166 -75.18902106616682 -61.04688544243805 -82.26008887803229 -82.26008887803448 M-53.97581763057039 -53.97581763057258 C-40.54078878802599 -68.82506003549008 -61.04688544243587 -75.189021066169 -82.26008887803229 -82.26008887803448" fill-rule="evenodd" fill="#cc5963" stroke="none"></path><path d="M15.31346016856909 -57.1506113887692 C-31.688735920372068 -74.92119277533965 8.935895897912712 -110.6232836052729 34.72488855125673 -129.5950483604497 M15.31346016856909 -57.1506113887692 C64.90384670853528 -49.03928826508949 47.57292894947565 -100.27052180117283 34.72488855125673 -129.5950483604497 M19.75652044282871 -73.73233807339828 C0.6968229621497386 -79.87464480173739 15.273643081988013 -95.63904505020479 30.10928224692877 -112.36937112496122 M19.75652044282871 -73.73233807339828 C39.333856013712676 -69.52188299763733 34.59215960776948 -90.46266414815474 30.10928224692877 -112.36937112496122" fill-rule="evenodd" fill="#cc5963" stroke="none"></path><path d="M57.15061138877246 -15.313460168565936 C49.03928826509274 -64.9038467085321 100.2705218011761 -47.5729289494725 129.59504836045298 -34.72488855125357 M57.15061138877246 -15.313460168565936 C74.92119277534292 31.68873592037522 110.62328360527617 -8.935895897909559 129.59504836045298 -34.72488855125357 M73.73233807340155 -19.756520442825554 C69.52188299764059 -39.33385601370951 90.46266414815801 -34.59215960776633 112.36937112496449 -30.109282246925623 M73.73233807340155 -19.756520442825554 C79.87464480174066 -0.6968229621465802 95.63904505020803 -15.27364308198486 112.36937112496449 -30.109282246925623" fill-rule="evenodd" fill="#cc5963" stroke="none"></path></g><g><path d="M37.832094862989116 10.137079266515482 C55.602676249560496 -36.86511682242533 91.30476707949295 3.7595149958601546 110.27653183466924 29.548507649204538 M37.832094862989116 10.137079266515482 C29.720771739308425 59.7274658064815 80.95200527539211 42.39654804742288 110.27653183466924 29.548507649204538 M54.41382154761811 14.580139540775422 C60.5561282759576 -4.479557939903422 76.32052852442469 10.097262179935154 93.05085459918085 24.93290134487625 M54.41382154761811 14.580139540775422 C50.20336647185677 34.15747511165931 71.14414762237428 29.41577870571652 93.05085459918085 24.93290134487625" fill-rule="evenodd" fill="#a8e6cf" stroke="none"></path><path d="M10.137079266524466 37.832094862986324 C59.72746580649278 29.72077173931968 42.39654804741965 80.95200527539848 29.548507649192988 110.27653183467194 M10.137079266524466 37.832094862986324 C-36.865116822421385 55.60267624954437 3.7595149958539835 91.30476707948836 29.548507649192988 110.27653183467194 M14.580139540779701 54.41382154761658 C34.15747511166478 50.203366471860775 29.415778705716065 71.14414762237695 24.93290134486958 93.05085459918224 M14.580139540779701 54.41382154761658 C-4.479557939900882 60.556128275950655 10.097262179933225 76.32052852442187 24.93290134486958 93.05085459918224" fill-rule="evenodd" fill="#a8e6cf" stroke="none"></path><path d="M-27.695015596468135 27.69501559647756 C4.124789556918735 66.58588856174403 -48.90821903207445 77.19249027953165 -80.72802418546979 80.72802418545803 M-27.695015596468135 27.69501559647756 C-66.5858885617219 -4.124789556924853 -77.1924902795307 48.90821903206409 -80.72802418546979 80.72802418545803 M-39.83368200683962 39.833682006844185 C-26.398653164298185 54.68292441176437 -46.904749818709334 61.04688544243921 -68.11795325430717 68.11795325430045 M-39.83368200683962 39.833682006844185 C-54.68292441175443 26.39865316429682 -61.046885442437464 46.904749818705426 -68.11795325430717 68.11795325430045" fill-rule="evenodd" fill="#a8e6cf" stroke="none"></path><path d="M-37.832094862987894 -10.137079266515304 C-55.60267624955928 36.86511682242549 -91.30476707949173 -3.759514995859977 -110.27653183466802 -29.54850764920437 M-37.832094862987894 -10.137079266515304 C-29.720771739307196 -59.72746580648132 -80.95200527539089 -42.39654804742271 -110.27653183466802 -29.54850764920437 M-54.41382154761689 -14.580139540775246 C-60.556128275956375 4.479557939903604 -76.32052852442347 -10.09726217993498 -93.05085459917963 -24.93290134487608 M-54.41382154761689 -14.580139540775246 C-50.203366471855546 -34.157475111659124 -71.14414762237305 -29.41577870571635 -93.05085459917963 -24.93290134487608" fill-rule="evenodd" fill="#a8e6cf" stroke="none"></path><path d="M-10.137079266495984 -37.83209486299347 C-59.72746580645687 -29.72077173928141 -42.396548047430656 -80.95200527537607 -29.54850764923085 -110.27653183466133 M-10.137079266495984 -37.83209486299347 C36.86511682243359 -55.60267624959458 -3.759514995874472 -91.30476707950133 -29.54850764923085 -110.27653183466133 M-14.580139540766403 -54.41382154761966 C-34.15747511164763 -50.20336647184594 -29.415778705718083 -71.14414762236645 -24.932901344891665 -93.05085459917585 M-14.580139540766403 -54.41382154761966 C4.479557939908556 -60.5561282759712 -10.097262179939989 -76.32052852442908 -24.932901344891665 -93.05085459917585" fill-rule="evenodd" fill="#a8e6cf" stroke="none"></path><path d="M27.695015596475148 -27.695015596471613 C-4.124789556922096 -66.5858885617296 48.90821903206826 -77.19249027953137 80.72802418546267 -80.72802418546624 M27.695015596475148 -27.695015596471613 C66.58588856173739 4.124789556920426 77.19249027953205 -48.90821903207136 80.72802418546267 -80.72802418546624 M39.8336820068434 -39.833682006841485 C26.398653164298 -54.68292441175808 46.90474981870746 -61.04688544243839 68.1179532543034 -68.11795325430528 M39.8336820068434 -39.833682006841485 C54.682924411761796 -26.39865316429807 61.04688544243935 -46.90474981870838 68.1179532543034 -68.11795325430528" fill-rule="evenodd" fill="#a8e6cf" stroke="none"></path></g></g></svg>