<svg height="200" viewBox="0 0 200 200" width="200" xmlns="http://www.w3.org/2000/svg"><g transform="scale(1)"><g><circle cx="122.5" cy="100.0" fill="none" r="5" stroke-width="2px" stroke="rgba(30,30,30,0.1)" transform="rotate(0 122.5 100.0)"></circle><circle cx="119.82088886237956" cy="87.14424780626922" fill="none" r="9" stroke-width="2px" stroke="rgba(30,30,30,0.2)" transform="rotate(0 119.82088886237956 87.14424780626922)"></circle><circle cx="109.97296355333862" cy="80.30384493975583" fill="none" r="13" stroke-width="2px" stroke="rgba(30,30,30,0.3)" transform="rotate(0 109.97296355333862 80.30384493975583)"></circle><circle cx="98.5" cy="82.67949192431122" fill="none" r="17" stroke-width="2px" stroke="rgba(30,30,30,0.4)" transform="rotate(0 98.5 82.67949192431122)"></circle><circle cx="91.70614758428184" cy="93.15959713348663" fill="none" r="21" stroke-width="2px" stroke="rgba(30,30,30,0.5)" transform="rotate(0 91.70614758428184 93.15959713348663)"></circle><circle cx="93.70614758428184" cy="106.84040286651337" fill="none" r="25" stroke-width="2px" stroke="rgba(30,30,30,0.6)" transform="rotate(0 93.70614758428184 106.84040286651337)"></circle><circle cx="104.49999999999999" cy="117.32050807568876" fill="none" r="29" stroke-width="2px" stroke="rgba(30,30,30,0.7)" transform="rotate(0 104.49999999999999 117.32050807568876)"></circle><circle cx="119.9729635533386" cy="119.69615506024417" fill="none" r="33" stroke-width="2px" stroke="rgba(30,30,30,0.8)" transform="rotate(0 119.9729635533386 119.69615506024417)"></circle><circle cx="133.82088886237955" cy="112.8557521937308" fill="none" r="37" stroke-width="2px" stroke="rgba(30,30,30,0.9)" transform="rotate(0 133.82088886237955 112.8557521937308)"></circle><circle cx="140.5" cy="100.0" fill="none" r="41" stroke-width="2px" stroke="rgba(30,30,30,1.0)" transform="rotate(0 140.5 100.0)"></circle><circle cx="137.82088886237955" cy="87.14424780626922" fill="none" r="45" stroke-width="2px" stroke="rgba(30,30,30,1.1)" transform="rotate(0 137.82088886237955 87.14424780626922)"></circle><circle cx="127.97296355333862" cy="80.30384493975583" fill="none" r="49" stroke-width="2px" stroke="rgba(30,30,30,1.2)" transform="rotate(0 127.97296355333862 80.30384493975583)"></circle></g></g></svg>